<svg width="512" height="512" viewBox="0 0 512 512" fill="none" xmlns="http://www.w3.org/2000/svg">
<g clip-path="url(#clip0_351085_21)">
<path d="M223.088 405.448C197.488 405.448 174.277 398.792 153.456 385.48C132.635 372.509 116.08 354.931 103.792 332.744C91.8453 310.216 85.872 285.128 85.872 257.48C85.872 231.539 90.6507 208.157 100.208 187.336C109.765 166.173 122.736 148.083 139.12 133.064C155.845 118.045 174.789 106.611 195.952 98.76C217.115 90.568 239.301 86.472 262.512 86.472C281.968 86.472 301.083 89.2027 319.856 94.664C321.221 87.496 322.416 80.328 323.44 73.16L410.992 88.008C408.603 94.4933 406.213 104.221 403.824 117.192C401.435 130.163 399.387 144.669 397.68 160.712C396.315 176.755 395.12 192.797 394.096 208.84C393.072 224.883 392.56 239.389 392.56 252.36C392.56 262.941 393.243 273.352 394.608 283.592C396.315 293.491 399.728 301.683 404.848 308.168C409.968 314.312 417.819 317.384 428.4 317.384H435.568L422.768 406.472C400.24 406.472 381.637 402.547 366.96 394.696C352.283 387.187 340.507 376.947 331.632 363.976C316.955 380.36 300.229 391.283 281.456 396.744C262.683 402.547 243.227 405.448 223.088 405.448ZM169.84 267.72C171.547 284.104 178.203 297.245 189.808 307.144C201.755 316.701 216.773 321.48 234.864 321.48C252.272 321.48 266.779 316.872 278.384 307.656C289.989 298.099 299.547 285.128 307.056 268.744C306.715 263.283 306.544 257.651 306.544 251.848C306.544 239.901 306.885 227.613 307.568 214.984C308.251 202.355 309.104 189.896 310.128 177.608C295.792 172.147 280.773 169.416 265.072 169.416C246.64 169.416 230.085 173.171 215.408 180.68C201.072 187.848 189.808 197.917 181.616 210.888C173.424 223.859 169.328 238.877 169.328 255.944C169.328 257.992 169.328 260.04 169.328 262.088C169.328 264.136 169.499 266.013 169.84 267.72Z" fill="black"/>
</g>
<defs>
<clipPath id="clip0_351085_21">
<rect width="512" height="512" fill="white"/>
</clipPath>
</defs>
</svg>
